<?xml version="1.0" encoding="UTF-8"?>
<svg version="1.1" xmlns="http://www.w3.org/2000/svg" width="1977" height="353" viewBox="0 0 1997 353">
<path d="M0 0 C0.59441895 0.33789551 1.18883789 0.67579102 1.80126953 1.02392578 C13.91737492 7.99754881 24.75033859 16.51840107 35 26 C38.90366351 24.36177191 41.80131152 21.70209324 44.9375 18.9375 C69.34932523 -2.06569963 98.49504447 -15.03738717 130 -21 C131.14855469 -21.226875 132.29710937 -21.45375 133.48046875 -21.6875 C179.4230241 -29.30053564 226.32152799 -16.77155833 264 9.7421875 C271.48029639 15.2484718 278.28548176 21.60036951 285 28 C285.84175781 28.77730469 286.68351563 29.55460937 287.55078125 30.35546875 C319.17910055 60.47047134 334.95230752 104.71380117 337.31640625 147.57421875 C337.37559288 151.41345796 337.25192456 155.16849066 337 159 C336.94537598 159.84224121 336.89075195 160.68448242 336.83447266 161.55224609 C336.03552369 173.21197169 334.8131799 184.63671876 332 196 C331.76289307 196.96220459 331.76289307 196.96220459 331.52099609 197.94384766 C320.07459622 243.19169682 290.37498523 281.25767862 250.875 305.5625 C209.8511781 330.00532133 160.48506653 335.86076509 114.4296875 324.4765625 C100.22313086 320.74437432 86.85661492 315.05834065 74 308 C73.36610352 307.65211426 72.73220703 307.30422852 72.07910156 306.94580078 C59.84784811 300.1316017 48.6290009 291.89195564 38.6484375 282.046875 C37.05309075 280.78815464 37.05309075 280.78815464 35.09692383 281.23852539 C32.6179314 282.13874397 31.56631807 283.19302593 29.80078125 285.13671875 C1.71124582 314.42060062 -42.47271243 328.52939816 -82 330 C-82.73605469 330.03174316 -83.47210938 330.06348633 -84.23046875 330.09619141 C-129.78934081 331.83777118 -174.30152452 314.3418954 -207.78808594 283.81933594 C-228.58868544 264.53037782 -244.22146084 241.68303318 -254 215 C-254.46019531 213.77023438 -254.92039063 212.54046875 -255.39453125 211.2734375 C-270.95663699 167.36103035 -267.34471623 117.70359267 -247.41796875 75.828125 C-238.7872549 58.30717969 -227.79437536 43.46377851 -214.32080078 29.38818359 C-213.2172682 28.22835249 -212.13517557 27.0481711 -211.05859375 25.86328125 C-187.12963368 0.32835071 -152.74073968 -14.28041032 -119 -21 C-117.88496094 -21.226875 -116.76992187 -21.45375 -115.62109375 -21.6875 C-75.94383894 -28.30803846 -34.63983288 -19.72915847 0 0 Z " fill="currentColor" transform="translate(265,23)"/>
<path d="M0 0 C5.40514296 2.72054868 8.45507362 7.94587989 10.44921875 13.4609375 C10.92416368 15.08696424 11.32082616 16.73555107 11.69921875 18.38671875 C12.03953125 17.89042969 12.37984375 17.39414063 12.73046875 16.8828125 C18.31396587 9.0570067 25.05623587 1.75541658 34.69921875 -0.61328125 C41.85143593 -1.36087292 49.71476391 -1.99905386 56.0546875 1.9375 C62.37140269 7.50401149 64.83967426 14.20518135 65.69921875 22.38671875 C66.09299709 30.76927458 65.22112863 38.95117258 64.203125 47.26171875 C64.05012436 48.54860596 63.89712372 49.83549316 63.73948669 51.16137695 C63.41812223 53.86117403 63.09249988 56.56040911 62.76342773 59.25927734 C62.34206666 62.71618098 61.92931627 66.17404562 61.51941013 69.63232422 C61.12587824 72.94671997 60.72694075 76.26045446 60.328125 79.57421875 C60.18016983 80.81478027 60.03221466 82.0553418 59.879776 83.33349609 C59.73970627 84.47898926 59.59963654 85.62448242 59.45532227 86.8046875 C59.27212181 88.31712036 59.27212181 88.31712036 59.08522034 89.86010742 C58.69921875 92.38671875 58.69921875 92.38671875 57.69921875 95.38671875 C50.10921875 95.38671875 42.51921875 95.38671875 34.69921875 95.38671875 C35.39488259 81.78529119 36.92303391 68.36924345 38.61791992 54.86010742 C42.19681283 37.25292772 42.19681283 37.25292772 38.88500977 21.0480957 C36.70898079 19.04633658 36.70898079 19.04633658 33.32421875 19.38671875 C24.2236743 21.89721377 20.86205872 27.8624382 16.43505859 35.59472656 C11.06032377 46.65590052 10.6740815 59.07963261 9.38671875 71.13671875 C9.1220811 73.49107015 8.85581923 75.84523959 8.58789062 78.19921875 C7.93652987 83.92635358 7.31873128 89.65569559 6.69921875 95.38671875 C-1.22078125 95.38671875 -9.14078125 95.38671875 -17.30078125 95.38671875 C-16.3204235 84.65341228 -15.29176535 73.94347171 -13.9765625 63.24609375 C-13.86496796 62.33098022 -13.75337341 61.4158667 -13.63839722 60.47302246 C-13.18234207 56.74244464 -12.72423639 53.01222295 -12.25170898 49.28369141 C-11.90063962 46.50138915 -11.56261162 43.71774474 -11.2265625 40.93359375 C-11.11830643 40.10535095 -11.01005035 39.27710815 -10.89851379 38.42376709 C-9.63368888 29.11300503 -9.63368888 29.11300503 -12.61689758 20.63885498 C-14.4447084 19.03162981 -14.4447084 19.03162981 -17.98828125 19.26171875 C-23.52733344 20.28446879 -26.8148933 23.06475709 -30.30078125 27.38671875 C-37.39448576 38.09732107 -39.65178878 48.49383649 -40.94580078 61.11523438 C-41.36276298 64.95793961 -41.85481055 68.78914522 -42.359375 72.62109375 C-42.49918289 73.68353554 -42.49918289 73.68353554 -42.64181519 74.7674408 C-42.83036276 76.1988103 -43.01905278 77.63016104 -43.20788574 79.06149292 C-43.9213844 84.50118243 -44.60773821 89.94439598 -45.30078125 95.38671875 C-53.22078125 95.38671875 -61.14078125 95.38671875 -69.30078125 95.38671875 C-67.88653313 83.59054846 -66.47013266 71.7946421 -65.04992771 59.99918747 C-64.39057628 54.52224323 -63.7321736 49.04518838 -63.07592773 43.56787109 C-62.44273282 38.28324118 -61.80706069 32.99891464 -61.16966057 27.71479034 C-60.92676241 25.69745772 -60.68476123 23.6800169 -60.44366646 21.66246796 C-60.10616657 18.83946667 -59.76549676 16.01686487 -59.42407227 13.19433594 C-59.32480942 12.35779984 -59.22554657 11.52126373 -59.12327576 10.65937805 C-58.69783437 7.16642079 -58.20479636 3.78661666 -57.30078125 0.38671875 C-54.71632352 0.27853215 -52.13640773 0.19934638 -49.55078125 0.13671875 C-48.82117187 0.10320312 -48.0915625 0.0696875 -47.33984375 0.03515625 C-43.86948187 -0.02794124 -41.73193136 0.09200855 -38.83203125 2.07421875 C-37.05733574 4.75437116 -36.71871573 6.44596369 -36.55078125 9.63671875 C-36.4940625 10.52875 -36.43734375 11.42078125 -36.37890625 12.33984375 C-36.353125 13.0153125 -36.32734375 13.69078125 -36.30078125 14.38671875 C-35.91148438 13.87882813 -35.5221875 13.3709375 -35.12109375 12.84765625 C-26.25427612 1.93779308 -14.15839478 -3.77396941 0 0 Z " fill="currentColor" transform="translate(1327.30078125,148.61328125)"/>
<path d="M0 0 C5.19053554 5.0539425 7.3941225 9.42444869 9.375 16.3125 C12.04015656 13.72349077 14.41217518 11.26427273 16.6875 8.3125 C20.9944742 3.05744972 26.90308032 0.08185836 33.375 -1.6875 C37.03125 -1.98828125 37.03125 -1.98828125 40.875 -2 C42.1434375 -2.01675781 43.411875 -2.03351563 44.71875 -2.05078125 C50.05404766 -1.52067155 54.04926926 0.36333326 57.5625 4.4375 C58.26439453 5.21480469 58.26439453 5.21480469 58.98046875 6.0078125 C62.60503273 11.99798827 63.89679371 18.53857207 63.78125 25.48828125 C63.77420044 26.28244949 63.76715088 27.07661774 63.7598877 27.89485168 C63.474512 40.16047976 61.69233133 52.35031096 60.13006592 64.50372314 C59.69921792 67.87576085 59.28190489 71.24947375 58.86328125 74.62304688 C58.04598865 81.1877809 57.21449833 87.75057026 56.375 94.3125 C48.455 94.3125 40.535 94.3125 32.375 94.3125 C32.79823239 90.3830988 33.22150918 86.45370568 33.64575195 82.52441406 C34.00906901 79.15803699 34.37065909 75.79148002 34.73120117 72.42480469 C35.5643989 64.66506867 36.41124913 56.90865568 37.34375 49.16015625 C37.48707764 47.95012939 37.63040527 46.74010254 37.77807617 45.4934082 C38.04329976 43.27087564 38.31640176 41.04926331 38.59887695 38.82885742 C40.12671913 28.78097992 40.12671913 28.78097992 37.05786133 19.57324219 C35.23310854 17.95567403 35.23310854 17.95567403 31.6875 18.1875 C24.79771435 19.45965421 21.22337649 23.7794147 17.234375 29.24609375 C9.67245346 41.35697016 9.19165181 55.68082772 7.78076172 69.53320312 C7.19814622 74.95973012 6.42641367 80.3522045 5.625 85.75 C5.2125 88.575625 4.8 91.40125 4.375 94.3125 C-3.215 94.3125 -10.805 94.3125 -18.625 94.3125 C-17.92933616 80.71107244 -16.40118484 67.2950247 -14.70629883 53.78588867 C-11.12740592 36.17870897 -11.12740592 36.17870897 -14.43920898 19.97387695 C-16.61523796 17.97211783 -16.61523796 17.97211783 -20 18.3125 C-28.13247337 20.55594093 -31.60813414 25.31074149 -35.625 32.3125 C-41.98777793 43.60529614 -42.48919258 56.29990229 -43.875 68.9375 C-44.25476009 72.26064118 -44.63944861 75.5831569 -45.02728271 78.90536499 C-45.26566952 80.96136611 -45.49848544 83.01802242 -45.72515869 85.0753479 C-45.82906921 85.99746063 -45.93297974 86.91957336 -46.04003906 87.86962891 C-46.17397064 89.08774765 -46.17397064 89.08774765 -46.31060791 90.33047485 C-46.625 92.3125 -46.625 92.3125 -47.625 94.3125 C-55.215 94.3125 -62.805 94.3125 -70.625 94.3125 C-69.89768766 83.52113364 -68.66765386 72.83637118 -67.33984375 62.10546875 C-67.11681663 60.28561968 -66.89404791 58.46573892 -66.67152405 56.64582825 C-66.09048773 51.89949286 -65.50598605 47.15359072 -64.92071533 42.40777588 C-64.3219675 37.54750233 -63.72656198 32.68681943 -63.13085938 27.82617188 C-61.96547583 18.32121529 -60.79642409 8.81671388 -59.625 -0.6875 C-57.04103321 -0.76862454 -54.45962432 -0.82804748 -51.875 -0.875 C-51.14539062 -0.90013672 -50.41578125 -0.92527344 -49.6640625 -0.95117188 C-46.39557153 -0.99574221 -44.05056922 -0.91819139 -41.14746094 0.65551758 C-38.98274974 3.01149816 -39.02335087 4.84754407 -38.875 8 C-38.81828125 8.99386719 -38.7615625 9.98773438 -38.703125 11.01171875 C-38.67734375 11.77097656 -38.6515625 12.53023437 -38.625 13.3125 C-38.00625 12.466875 -37.3875 11.62125 -36.75 10.75 C-28.0009934 0.25617727 -13.08594551 -6.09173326 0 0 Z " fill="currentColor" transform="translate(1174.625,149.6875)"/>
<path d="M0 0 C7.59 0 15.18 0 23 0 C22.38685444 8.58415259 21.58293242 17.10350975 20.52539062 25.64331055 C20.30812569 27.4262426 20.30812569 27.4262426 20.08647156 29.24519348 C19.69406775 32.45960902 19.29906967 35.67369101 18.90260124 38.88760734 C18.57087435 41.57953211 18.24098994 44.27168142 17.91108751 46.96383029 C17.13364627 53.30783937 16.35321316 59.65147528 15.57080078 65.99487305 C14.76410328 72.53555954 13.96230621 79.07683378 13.16288805 85.61841363 C12.47425882 91.25211394 11.78276153 96.88545701 11.08891249 102.51851684 C10.67535987 105.87614445 10.26287399 109.2338942 9.85310364 112.5919857 C9.39715681 116.32178144 8.93651682 120.05096772 8.47460938 123.7800293 C8.33951462 124.89320526 8.20441986 126.00638123 8.06523132 127.15328979 C7.8760186 128.66902336 7.8760186 128.66902336 7.6829834 130.21537781 C7.52039158 131.53679039 7.52039158 131.53679039 7.35451508 132.88489819 C7 135 7 135 6 137 C3.22858283 137.08089542 0.45952181 137.14044062 -2.3125 137.1875 C-3.09818359 137.21263672 -3.88386719 137.23777344 -4.69335938 137.26367188 C-5.8293457 137.27817383 -5.8293457 137.27817383 -6.98828125 137.29296875 C-8.03302612 137.31653442 -8.03302612 137.31653442 -9.09887695 137.34057617 C-11.6102545 136.89067612 -12.46737296 136.00690034 -14 134 C-14.51171875 130.86328125 -14.51171875 130.86328125 -14.6875 127.3125 C-14.78611328 125.54326172 -14.78611328 125.54326172 -14.88671875 123.73828125 C-14.94279297 122.38283203 -14.94279297 122.38283203 -15 121 C-15.58394531 121.74443359 -15.58394531 121.74443359 -16.1796875 122.50390625 C-23.69708113 131.63216995 -32.39003222 137.84745319 -44.3125 139.27734375 C-51.37484426 139.58386911 -57.31585622 137.70339894 -63.25 133.9375 C-70.57650505 127.14013143 -72.64885283 116.87544465 -73.21875 107.33984375 C-73.81869894 89.03012398 -69.35995075 70.23660375 -57.1015625 56.1796875 C-49.51893302 48.31517588 -41.9266718 41.47486974 -30.609375 40.796875 C-21.32599498 40.6841214 -14.58443785 41.10099279 -7 47 C-6.78851318 45.39729248 -6.78851318 45.39729248 -6.57275391 43.76220703 C-6.04304943 39.75476113 -5.50896502 35.7479086 -4.97363281 31.74121094 C-4.74361755 30.01513001 -4.51475147 28.28889551 -4.28710938 26.5625 C-3.95753587 24.06467972 -3.6236755 21.56746209 -3.2890625 19.0703125 C-3.19001617 18.31259552 -3.09096985 17.55487854 -2.98892212 16.77420044 C-2.22254826 11.10025411 -1.12906288 5.64531442 0 0 Z M-33 62 C-33.825 62.515625 -34.65 63.03125 -35.5 63.5625 C-44.47906953 72.31709279 -48.98342332 85.75222156 -49.29223633 98.07958984 C-49.42193829 108.14199826 -49.42193829 108.14199826 -45 117 C-42.00075613 119.74930688 -40.3832831 119.97401471 -36.3125 120.25 C-29.63234305 119.02970768 -24.60831474 113.6995374 -20.82470703 108.33300781 C-14.21664181 98.05506061 -10.67162362 88.28875723 -9 76.25 C-8.82855469 75.22261719 -8.65710937 74.19523437 -8.48046875 73.13671875 C-8.09112339 70.34580385 -7.79579413 67.81103963 -8 65 C-10.11156718 62.25817446 -10.11156718 62.25817446 -13 61 C-13.7425 60.5875 -14.485 60.175 -15.25 59.75 C-21.72506274 57.9840738 -27.26536535 58.35068704 -33 62 Z " fill="currentColor" transform="translate(1588,107)"/>
<path d="M0 0 C2.97224597 2.41030572 5.89096597 4.78437404 8 8 C7.79814508 13.50615376 2.66913759 18.31102923 -1 22 C-4.3125 23.5625 -4.3125 23.5625 -8 23 C-10.92913178 21.41919872 -13.63303541 19.68182456 -16.3515625 17.76171875 C-24.26491841 12.49781976 -32.85751058 12.36418686 -42 14 C-52.40262389 16.51805025 -60.95252542 22.11824535 -67 31 C-72.92370434 40.99887683 -76.30800783 51.40388881 -77 63 C-77.05285156 63.68191406 -77.10570312 64.36382812 -77.16015625 65.06640625 C-77.63614822 76.30395569 -74.68483912 87.90498078 -68 97 C-62.18356183 103.10413296 -54.91424288 105.86582272 -46.56640625 106.09375 C-35.7974662 105.6300712 -28.7153481 102.62147011 -20.23828125 96.171875 C-17.18478069 94.57318361 -15.40142564 94.42215163 -12 95 C-9.4453125 97.40625 -9.4453125 97.40625 -7.125 100.5 C-5.95324219 102.03140625 -5.95324219 102.03140625 -4.7578125 103.59375 C-4.17773438 104.3878125 -3.59765625 105.181875 -3 106 C-8.65527493 116.47407832 -20.19871246 122.2754817 -31.1875 125.75 C-46.80516216 130.32621447 -64.25571264 129.25643004 -78.625 121.49609375 C-90.9851425 113.71001714 -98.09976829 101.82098076 -101.53735352 87.80981445 C-102.90918727 81.60389985 -103.35196217 75.65858042 -103.3125 69.3125 C-103.30686035 68.35206787 -103.3012207 67.39163574 -103.29541016 66.40209961 C-102.93345914 44.98785883 -95.60169288 25.89902968 -80.8125 10.25 C-59.7903234 -9.8179375 -25.0428337 -17.06424797 0 0 Z " fill="currentColor" transform="translate(986,118)"/>
<path d="M0 0 C6.71285072 5.70831487 9.64605904 12.6687583 10.35693359 21.36889648 C10.82261848 28.65781281 10.14032599 35.63924814 9.24609375 42.87109375 C9.08911066 44.21044847 8.93315602 45.54992409 8.77816772 46.88951111 C8.45427489 49.66776208 8.1225906 52.44491608 7.78417969 55.22143555 C7.35116575 58.77418104 6.93139153 62.32832595 6.51653481 65.88323307 C6.11789595 69.29632948 5.71382923 72.70877506 5.30859375 76.12109375 C5.15750153 77.39396744 5.0064093 78.66684113 4.85073853 79.97828674 C4.7074411 81.1572905 4.56414368 82.33629425 4.41650391 83.55102539 C4.29135406 84.58659073 4.16620422 85.62215607 4.03726196 86.68910217 C3.64453125 89.3984375 3.64453125 89.3984375 2.64453125 93.3984375 C-5.27546875 93.3984375 -13.19546875 93.3984375 -21.35546875 93.3984375 C-21.14341797 91.56216797 -20.93136719 89.72589844 -20.71289062 87.83398438 C-20.0106582 81.7435966 -19.31262585 75.65273874 -18.61740875 69.56154633 C-18.19605295 65.87115555 -17.77305224 62.18096934 -17.34619141 58.49121094 C-16.93374432 54.92549962 -16.52575003 51.35930361 -16.1207428 47.79273987 C-15.96602948 46.43711951 -15.80975536 45.08167628 -15.65184021 43.72642517 C-13.79068036 31.98155577 -13.79068036 31.98155577 -15.41796875 20.4609375 C-17.28506279 18.16474259 -17.28506279 18.16474259 -20.41796875 17.2734375 C-26.82313799 17.47677621 -31.80029487 19.88280209 -36.375 24.38671875 C-44.77088319 34.68493713 -48.26049117 45.68811572 -49.609375 58.671875 C-49.76804298 60.11839951 -49.76804298 60.11839951 -49.92991638 61.59414673 C-50.26500703 64.65331957 -50.59220772 67.71325815 -50.91796875 70.7734375 C-51.24790934 73.85496265 -51.57963248 76.93624778 -51.91673279 80.01699829 C-52.12587123 81.92959483 -52.33078589 83.84265872 -52.53114319 85.75619507 C-52.62471603 86.61443878 -52.71828888 87.4726825 -52.81469727 88.35693359 C-52.89526871 89.11525482 -52.97584015 89.87357605 -53.05885315 90.65487671 C-53.35546875 92.3984375 -53.35546875 92.3984375 -54.35546875 93.3984375 C-56.06319233 93.48557581 -57.77445524 93.50543757 -59.484375 93.49609375 C-61.03608398 93.49125977 -61.03608398 93.49125977 -62.61914062 93.48632812 C-63.70775391 93.47794922 -64.79636719 93.46957031 -65.91796875 93.4609375 C-67.55668945 93.45416992 -67.55668945 93.45416992 -69.22851562 93.44726562 C-71.93755634 93.43543575 -74.64647697 93.41811471 -77.35546875 93.3984375 C-76.77392096 82.05777384 -75.70057926 70.84015795 -74.32421875 59.5703125 C-74.12593783 57.92128318 -73.92798713 56.27221412 -73.73034668 54.62310791 C-73.31964358 51.20428169 -72.90591592 47.78584076 -72.48974609 44.36767578 C-71.95693334 39.99047886 -71.43052152 35.6125408 -70.90615082 31.23432541 C-70.49981593 27.84549724 -70.09086653 24.45698882 -69.68104553 21.06858063 C-69.48584269 19.45313514 -69.29128626 17.8376114 -69.09739685 16.22200775 C-68.82725162 13.97548571 -68.55375674 11.72939689 -68.27929688 9.48339844 C-68.12464966 8.20817322 -67.97000244 6.932948 -67.81066895 5.61907959 C-67.4595092 3.13454669 -67.03939571 0.80652864 -66.35546875 -1.6015625 C-63.77101102 -1.7097491 -61.19109523 -1.78893487 -58.60546875 -1.8515625 C-57.87585938 -1.88507813 -57.14625 -1.91859375 -56.39453125 -1.953125 C-52.94472341 -2.01584878 -50.78506193 -1.88977058 -47.88671875 0.0546875 C-46.03500919 2.88893682 -45.76570642 4.78344652 -45.60546875 8.1484375 C-45.54875 9.13328125 -45.49203125 10.118125 -45.43359375 11.1328125 C-45.4078125 11.88046875 -45.38203125 12.628125 -45.35546875 13.3984375 C-44.83339844 12.81835938 -44.31132813 12.23828125 -43.7734375 11.640625 C-33.27691797 0.5007111 -15.0175494 -9.22646826 0 0 Z " fill="currentColor" transform="translate(850.35546875,150.6015625)"/>
<path d="M0 0 C9.78726427 6.92441896 14.79641419 15.27837111 17 27 C18.81570107 43.95920789 15.56233486 61.08659731 4.89453125 74.68359375 C-4.55593064 85.63051433 -15.19574456 92.90578531 -29.78125 94.2578125 C-39.27595276 94.6326034 -49.86994338 92.74477228 -57.4453125 86.6015625 C-66.96976206 76.7899436 -70.29476877 65.47993432 -70.2421875 52.07006836 C-69.9419269 36.39834168 -64.29903357 20.26258514 -53.1875 8.890625 C-39.06738295 -3.31319045 -17.27950162 -10.17570651 0 0 Z M-38.359375 23.51953125 C-46.06351687 35.16746003 -47.82702309 50.3111956 -45.50390625 63.90234375 C-44.09946891 68.67108295 -42.35380041 71.32073821 -38 74 C-34.24450491 75.87774755 -30.08965449 75.51570423 -26 75 C-19.63607735 72.61073781 -15.30173517 67.8098782 -12 62 C-8.27377114 53.51181732 -6.80727395 45.88712748 -6.75 36.6875 C-6.729375 35.87087891 -6.70875 35.05425781 -6.6875 34.21289062 C-6.65081238 28.45751989 -7.57649985 24.23937651 -10 19 C-13.75715814 15.33677081 -16.50580805 14.124516 -21.75 13.6875 C-29.05018573 13.83430447 -33.88549465 18.14885957 -38.359375 23.51953125 Z " fill="currentColor" transform="translate(1482,152)"/>
<path d="M0 0 C9.76598507 6.90936408 14.8339804 15.28583923 17 27 C18.74103754 44.12467653 15.69434058 60.90221462 4.89453125 74.6875 C-4.56474291 85.62834722 -15.19239806 92.9054751 -29.78125 94.2578125 C-40.24838398 94.67098884 -49.54698984 92.60473205 -57.5625 85.625 C-66.58335011 76.66253727 -70.05484718 66.69864483 -70.25 54.0625 C-70.02520754 37.54025394 -64.96328493 20.94240489 -53.1875 8.890625 C-39.06738295 -3.31319045 -17.27950162 -10.17570651 0 0 Z M-38.359375 23.51953125 C-46.06351687 35.16746003 -47.82702309 50.3111956 -45.50390625 63.90234375 C-44.09946891 68.67108295 -42.35380041 71.32073821 -38 74 C-34.24450491 75.87774755 -30.08965449 75.51570423 -26 75 C-19.63897249 72.61182476 -15.29658575 67.81059921 -12 62 C-8.35484218 53.59168069 -6.80301116 46.34141382 -6.75 37.25 C-6.729375 36.38117188 -6.70875 35.51234375 -6.6875 34.6171875 C-6.65201368 28.70871553 -7.49082565 24.37082796 -10 19 C-13.75715814 15.33677081 -16.50580805 14.124516 -21.75 13.6875 C-29.05018573 13.83430447 -33.88549465 18.14885957 -38.359375 23.51953125 Z " fill="currentColor" transform="translate(1070,152)"/>
<path d="M0 0 C4.38358605 3.37766841 7.44286658 7.31171214 8.91796875 12.6796875 C9.84639101 20.32720697 9.77886409 27.42404663 4.91796875 33.6796875 C-7.57867797 48.0087752 -30.23942154 50.00142223 -48.08203125 51.6796875 C-47.04936396 61.45594776 -47.04936396 61.45594776 -42.08203125 69.6796875 C-36.71656291 73.70378876 -30.49869643 73.40793449 -24.08203125 72.6796875 C-18.89958395 71.31240353 -14.61197608 69.21929447 -10.39453125 65.9296875 C-7.90351025 64.06871396 -6.77631673 63.60871806 -3.58203125 62.8671875 C0.99986082 63.93084102 2.73083151 66.04810536 5.73046875 69.5390625 C6.91796875 71.6796875 6.91796875 71.6796875 6.984375 73.6328125 C5.33815578 76.79258859 2.66561127 78.60983665 -0.14453125 80.6796875 C-1.02927124 81.34387695 -1.02927124 81.34387695 -1.93188477 82.02148438 C-14.22085353 91.08129649 -27.36812484 94.09458964 -42.5390625 92.40625 C-51.51713532 90.73956748 -59.5615556 85.98984354 -65.08203125 78.6796875 C-73.26871568 64.542999 -73.62157732 49.3538332 -69.71582031 33.80273438 C-65.28268574 18.95275816 -55.66784571 6.25639172 -42.08203125 -1.3203125 C-29.05248935 -7.66562409 -12.40450146 -7.86626922 0 0 Z M-40.76171875 21.7109375 C-43.61394893 25.96396711 -46.08203125 30.50354962 -46.08203125 35.6796875 C-36.00852209 34.97277458 -21.53318586 33.23490852 -14.08203125 25.6796875 C-12.19777413 22.29717792 -12.19777413 22.29717792 -12.08203125 18.6796875 C-13.606019 15.07024283 -14.79828023 13.86885485 -18.08203125 11.6796875 C-27.97970161 10.0095655 -34.70263521 14.16191538 -40.76171875 21.7109375 Z " fill="currentColor" transform="translate(1883.08203125,153.3203125)"/>
<path d="M0 0 C0.70189453 0.00902344 1.40378906 0.01804687 2.12695312 0.02734375 C3.85561525 0.05086296 5.58410145 0.08673287 7.3125 0.125 C6.71398751 10.20521029 5.62947857 20.11596288 4.3125 30.125 C11.5725 30.125 18.8325 30.125 26.3125 30.125 C26.168125 32.55875 26.02375 34.9925 25.875 37.5 C25.83189697 38.26489746 25.78879395 39.02979492 25.74438477 39.81787109 C25.42361111 44.90277778 25.42361111 44.90277778 24.3125 47.125 C16.7225 47.125 9.1325 47.125 1.3125 47.125 C1.12880859 50.3115625 1.12880859 50.3115625 0.94140625 53.5625 C0.39894312 62.12997891 -0.65117036 70.61413516 -1.75 79.125 C-2.12087909 81.99939279 -2.48595595 84.87443941 -2.84765625 87.75 C-3.00886963 89.00039062 -3.17008301 90.25078125 -3.33618164 91.5390625 C-3.85657164 96.82826825 -3.85657164 96.82826825 -3.6875 102.125 C-2.3675 103.445 -1.0475 104.765 0.3125 106.125 C3.9425 105.135 7.5725 104.145 11.3125 103.125 C13.96660298 105.77910298 15.07352327 107.26786119 16.5625 110.5625 C16.91828125 111.32433594 17.2740625 112.08617187 17.640625 112.87109375 C18.44016146 115.55325967 18.58134451 116.61800884 17.3125 119.125 C14.765625 120.79296875 14.765625 120.79296875 11.5625 122.3125 C10.51578125 122.82167969 9.4690625 123.33085937 8.390625 123.85546875 C0.94127556 126.92785272 -8.24014317 127.48933138 -16 125.125 C-20.6471593 123.04881609 -24.17556268 119.51070678 -26.6875 115.125 C-28.77065539 108.93045548 -28.84333605 103.30254608 -28.125 96.875 C-28.03492676 95.97765137 -27.94485352 95.08030273 -27.85205078 94.15576172 C-26.18702399 78.43678001 -23.8819582 62.77712985 -21.6875 47.125 C-22.46996094 47.13660156 -23.25242187 47.14820313 -24.05859375 47.16015625 C-25.07050781 47.16917969 -26.08242187 47.17820313 -27.125 47.1875 C-28.13433594 47.19910156 -29.14367188 47.21070313 -30.18359375 47.22265625 C-32.6875 47.125 -32.6875 47.125 -33.6875 46.125 C-33.78669077 44.52336084 -33.81719898 42.91720082 -33.8125 41.3125 C-33.81507812 40.43980469 -33.81765625 39.56710938 -33.8203125 38.66796875 C-33.6875 36.125 -33.6875 36.125 -32.6875 32.125 C-25.7575 30.64 -25.7575 30.64 -18.6875 29.125 C-18.14480469 27.19914062 -17.60210938 25.27328125 -17.04296875 23.2890625 C-16.50755674 21.42555058 -15.97206581 19.56206033 -15.43432617 17.69921875 C-15.0627982 16.40446567 -14.69525223 15.10856302 -14.33178711 13.81152344 C-13.80851898 11.94688992 -13.26969451 10.08664402 -12.73046875 8.2265625 C-12.41102295 7.10588379 -12.09157715 5.98520508 -11.76245117 4.83056641 C-9.52557997 -0.79946009 -5.2305988 -0.12697999 0 0 Z " fill="currentColor" transform="translate(1717.6875,119.875)"/>
<path d="M0 0 C3.12237921 1.90640315 5.74382739 3.89482351 8.3671875 6.4453125 C7.74768999 9.76671481 6.55994893 11.92697872 4.5546875 14.6328125 C4.05324219 15.32761719 3.55179688 16.02242187 3.03515625 16.73828125 C1.0654053 18.7541622 0.17914068 19.30163606 -2.6328125 19.4453125 C-5.19140625 18.44921875 -5.19140625 18.44921875 -8.0703125 17.0078125 C-15.38627796 13.78018068 -22.6481505 13.08713212 -30.4140625 15.203125 C-32.7606136 16.25553488 -32.7606136 16.25553488 -33.69921875 18.43359375 C-33.86292969 19.20058594 -34.02664063 19.96757812 -34.1953125 20.7578125 C-34.47568359 21.89669922 -34.47568359 21.89669922 -34.76171875 23.05859375 C-34.56055648 26.78314362 -33.3714691 27.8963464 -30.6328125 30.4453125 C-27.11217911 32.36256318 -23.45520041 33.90272563 -19.7578125 35.4453125 C-3.16414512 42.42293873 -3.16414512 42.42293873 0.671875 50.94921875 C2.88803528 58.90498516 2.26214388 67.67583189 -1.25390625 75.13671875 C-6.94911889 84.67176315 -15.23046492 90.9529448 -26.0078125 93.8203125 C-39.4117956 96.14207386 -51.05012442 93.99492535 -62.63671875 87.04296875 C-64.77599423 85.33071107 -65.62566739 83.9658973 -66.6328125 81.4453125 C-65.61143573 79.80748347 -64.5647327 78.18543297 -63.5078125 76.5703125 C-62.92773438 75.66539062 -62.34765625 74.76046875 -61.75 73.828125 C-59.11832226 70.86627367 -57.55346987 70.02329639 -53.6328125 69.4453125 C-51.13752954 70.45643427 -49.15262278 71.44742042 -46.8828125 72.8203125 C-41.07119072 76.01213595 -36.27898388 77.94988249 -29.6328125 76.4453125 C-26.16720924 75.16103867 -23.48567016 73.55773553 -21.1953125 70.5703125 C-20.41138479 67.6088078 -20.19615851 65.50189041 -20.6328125 62.4453125 C-24.74129211 57.16420433 -29.96158147 55.33476776 -36.0703125 52.9453125 C-50.32376877 47.34680018 -50.32376877 47.34680018 -54.4453125 40.3828125 C-57.9386146 31.74148626 -56.91949275 24.36785326 -54.0078125 15.6328125 C-49.78454974 5.84252156 -42.1777863 1.40470904 -32.6328125 -2.5546875 C-22.63451624 -5.88745292 -9.28593536 -4.60350903 0 0 Z " fill="currentColor" transform="translate(1968.6328125,151.5546875)"/>
<path d="M0 0 C8.25 0 16.5 0 25 0 C23.06660121 17.62357611 21.03448249 35.22858967 18.86328125 52.82421875 C18.57596964 55.16215877 18.28879707 57.50011589 18.00175476 59.83808899 C17.25844355 65.88940095 16.51328868 71.94048438 15.7677002 77.99151611 C15.00218499 84.20709313 14.23848181 90.42289279 13.47460938 96.63867188 C11.98480939 108.75932876 10.49288629 120.87972286 9 133 C0.75 133 -7.5 133 -16 133 C-16 122.87473838 -16 122.87473838 -15.43727112 118.29957581 C-15.31250397 117.26356735 -15.18773682 116.2275589 -15.05918884 115.16015625 C-14.92049881 114.05486572 -14.78180878 112.9495752 -14.63891602 111.81079102 C-14.49421875 110.62275375 -14.34952148 109.43471649 -14.20043945 108.2106781 C-13.80566629 104.97925956 -13.40606356 101.74848596 -13.00399518 98.51796842 C-12.58323529 95.1294275 -12.16811496 91.7401951 -11.75218201 88.35105896 C-11.05399155 82.66919481 -10.35146636 76.98787969 -9.64624023 71.30688477 C-8.83070613 64.73692356 -8.02170785 58.16618273 -7.21623665 51.59498078 C-6.44018114 45.26472605 -5.65992563 38.93499621 -4.87760735 32.60551262 C-4.54498209 29.91392655 -4.21376808 27.22217234 -3.8836689 24.53027534 C-3.42293061 20.7808685 -2.95739513 17.03208903 -2.49047852 13.28344727 C-2.28547981 11.60425705 -2.28547981 11.60425705 -2.07633972 9.8911438 C-1.88495926 8.36673927 -1.88495926 8.36673927 -1.68971252 6.8115387 C-1.58001916 5.9254017 -1.47032579 5.0392647 -1.35730839 4.12627506 C-1 2 -1 2 0 0 Z " fill="currentColor" transform="translate(731,111)"/>
<path d="M0 0 C7.92 0 15.84 0 24 0 C22.33607506 18.97057283 20.01689707 37.84748717 17.69061279 56.74554443 C17.15886909 61.07034523 16.63036953 65.39554245 16.1015625 69.72070312 C15.07080728 78.14751788 14.03626949 86.57386157 13 95 C5.08 95 -2.84 95 -11 95 C-9.240537 76.24528447 -6.9540756 57.55859186 -4.69061279 38.85955811 C-4.15944577 34.4677488 -3.63061385 30.07565833 -3.1015625 25.68359375 C-2.06994312 17.12212481 -1.03559326 8.56098917 0 0 Z " fill="currentColor" transform="translate(1768,149)"/>
<path d="M0 0 C7.92 0 15.84 0 24 0 C23.27268766 10.79136636 22.04265386 21.47612882 20.71484375 32.20703125 C20.49181663 34.02688032 20.26904791 35.84676108 20.04652405 37.66667175 C19.46548773 42.41300714 18.88098605 47.15890928 18.29571533 51.90472412 C17.6969675 56.76499767 17.10156198 61.62568057 16.50585938 66.48632812 C15.34047574 75.99128545 14.17111463 85.49574709 13 95 C5.08 95 -2.84 95 -11 95 C-8.54984812 72.40077305 -5.93588819 49.82227645 -3.25 27.25 C-3.12957903 26.23795816 -3.12957903 26.23795816 -3.00672531 25.20547104 C-2.00676211 16.80337438 -1.00368743 8.40165322 0 0 Z " fill="currentColor" transform="translate(1637,149)"/>
<path d="M0 0 C4.32633002 2.24636367 7.48567037 4.80945061 10 9 C11.19364588 13.41485463 11.36429998 16.88567065 9.9375 21.25 C7.01928756 25.39197895 3.90567035 28.36477655 -1 30 C-6.72719196 30.54030113 -9.55882194 29.6516353 -14 26 C-17.41136938 22.68082979 -18.73192111 19.8540598 -19.09375 15.05078125 C-18.90205797 10.85751818 -17.45558658 7.49817023 -14.53125 4.48828125 C-9.80126752 0.44229133 -6.20476778 -0.83347627 0 0 Z " fill="currentColor" transform="translate(1656,107)"/>
<path d="M0 0 C3.9250067 2.55978698 6.99610242 5.22213124 8.51171875 9.796875 C9.42484396 14.86324711 8.50615994 18.37656527 5.875 22.875 C2.25158798 26.69587316 -1.07054497 28.67745625 -6.375 29.1875 C-10.75965628 28.82211198 -13.83787513 27.75630699 -17.125 24.875 C-20.17116332 21.00838009 -21.46845342 17.236104 -21.25 12.3125 C-20.42234254 7.38068543 -17.89836782 4.06513064 -14.125 0.875 C-9.39104929 -1.91514777 -5.15763087 -1.85674711 0 0 Z " fill="currentColor" transform="translate(1789.125,108.125)"/>
</svg>
