<svg id="Filled_Icon" data-name="Filled Icon" xmlns="http://www.w3.org/2000/svg" viewBox="0 0 135 63">
<title>topmenu_logo_135x43px</title>
<path class="cls-1" fill="currentColor" d="M2.37,19.38A2.33,2.33,0,0,0,0,21.72V40.44a2.33,2.33,0,0,0,2.37,2.34,2.31,2.31,0,0,0,2.34-2.34V21.72A2.31,2.31,0,0,0,2.37,19.38Z"/>
<path class="cls-1" d="M26.52,19.38a2.31,2.31,0,0,0-2.31,2.31V34.21L13.78,20.7a2.87,2.87,0,0,0-2.35-1.29H11a2.37,2.37,0,0,0-2.37,2.37V40.47a2.32,2.32,0,0,0,4.65,0v-13L24,41.41a2.87,2.87,0,0,0,2.35,1.33h0.16a2.3,2.3,0,0,0,2.31-2.34V21.69A2.33,2.33,0,0,0,26.52,19.38Z"/>
<path class="cls-1" d="M50.6,36a2.16,2.16,0,0,0-1.43.54,7.6,7.6,0,0,1-5.32,2c-4,0-7-3.22-7-7.56s3-7.47,7-7.47a7.64,7.64,0,0,1,5.08,1.93,2.36,2.36,0,0,0,3.76-1.85,2.35,2.35,0,0,0-.92-1.88,12.12,12.12,0,0,0-7.88-2.6A11.64,11.64,0,0,0,32,31.08v0.06A11.67,11.67,0,0,0,43.72,43a11.82,11.82,0,0,0,8.35-3.1A2.23,2.23,0,0,0,50.6,36Z"/>
<path class="cls-1" d="M73.37,19.38A2.33,2.33,0,0,0,71,21.72v11c0,3.73-1.85,5.78-5.2,5.78s-5.24-2.11-5.24-5.94V21.72a2.36,2.36,0,0,0-4.71,0v11c0,6.48,3.6,10.2,9.89,10.2s10-3.79,10-10.39V21.72A2.31,2.31,0,0,0,73.37,19.38Z"/>
<path class="cls-1" d="M94.68,30.56a5.59,5.59,0,0,0,2.66-5,5.35,5.35,0,0,0-1.61-4,8.42,8.42,0,0,0-6.11-2.09h-8a2.35,2.35,0,0,0-2.37,2.37V40.25a2.35,2.35,0,0,0,2.37,2.37h8.34c5.41,0,8.64-2.43,8.64-6.57C98.59,33.43,97.34,31.67,94.68,30.56Zm-10.8-1.63V23.8h5.24c2.24,0,3.52.89,3.52,2.5,0,2.28-2.38,2.63-3.8,2.63H83.88Zm10,6.76c0,2.31-2.44,2.66-3.9,2.66h-6.1V33h5.81C91.6,33,93.87,33.49,93.87,35.69Z"/>
<path class="cls-1" fill="currentColor" d="M122.71,39.51L114.43,21a2.82,2.82,0,0,0-2.69-1.83h-0.19A2.88,2.88,0,0,0,108.84,21L100.56,39.5a2.36,2.36,0,0,0-.29,1.06,2.19,2.19,0,0,0,2.21,2.21,2.28,2.28,0,0,0,2.18-1.48l1.77-4.06h10.3l1.71,3.93a2.4,2.4,0,0,0,2.28,1.61A2.24,2.24,0,0,0,123,40.5,2.07,2.07,0,0,0,122.71,39.51ZM114.9,33h-6.62l3.31-7.61Z"/>
<path class="cls-2" fill="currentColor" d="M118.12,4.91a0.56,0.56,0,0,0,0,1.06L125,9.91a2,2,0,0,0,1.84,0L133.63,6a0.56,0.56,0,0,0,0-1.06L126.8,1A2,2,0,0,0,125,1Z"/>
<path class="cls-3" d="M126.33,20.2a0.56,0.56,0,0,0,.92.53l6.83-4a2,2,0,0,0,.92-1.6V7.29a0.56,0.56,0,0,0-.92-0.53l-6.83,4a2,2,0,0,0-.92,1.6V20.2Z"/>
</svg>