<svg width="100" height="100" viewBox="0 0 52 52" fill="none" xmlns="http://www.w3.org/2000/svg">
<g style="mix-blend-mode:overlay">
<path d="M7.25227 35.999C7.05853 36.289 6.76793 36.3857 6.38046 36.3857C5.70238 36.3857 5.12117 35.9023 5.02431 35.2256C4.63684 29.9085 6.38046 24.7847 9.86768 20.7243C13.3549 16.664 18.1983 14.2471 23.526 13.8604C25.0759 13.7637 26.6258 13.8604 28.1757 14.0538C29.7256 14.3438 31.1786 14.7305 32.6316 15.3105C33.0191 15.5039 33.4066 15.6006 33.6972 15.7939C33.9878 15.9873 34.3752 16.1806 34.7627 16.374C35.0533 16.5673 35.247 16.7607 35.3439 17.1474C35.4408 17.4374 35.3439 17.8241 35.247 18.1141C35.0533 18.4041 34.8596 18.5975 34.4721 18.6942C34.1815 18.7908 33.794 18.6942 33.5034 18.5975C33.2128 18.4041 32.9222 18.3075 32.5347 18.1141C32.1473 17.9208 31.8567 17.8241 31.5661 17.6307C30.3068 17.1474 29.0475 16.7607 27.6914 16.4706C26.7227 16.2773 25.8509 16.2773 24.8822 16.2773C24.4947 16.2773 24.0104 16.2773 23.6229 16.2773C18.9733 16.5673 14.7111 18.7908 11.6113 22.2711C8.70528 25.9448 7.1554 30.3918 7.54287 35.0323C7.54287 35.419 7.446 35.709 7.25227 35.999Z" fill="#F5F5F5"/>
<path d="M31.9533 28.458C32.2439 28.2647 32.5345 28.2647 32.922 28.3614C33.2126 28.458 33.5032 28.6514 33.697 28.9414C34.0844 29.5215 34.375 30.1982 34.5688 30.9716C34.7625 31.6483 34.9562 32.4217 34.9562 33.0984C35.0531 34.8386 35.828 36.2887 37.0873 37.4488C38.3466 38.5123 39.9934 39.0923 41.737 38.9956C43.3837 38.899 44.9336 38.1256 46.096 36.8688C47.1616 35.612 47.7428 33.9685 47.6459 32.2284C47.2584 26.2345 44.4493 20.724 39.8965 16.857C35.3437 12.8934 29.5316 10.9599 23.5258 11.4432C21.5885 11.5399 19.748 11.9266 17.9075 12.6033C16.067 13.1834 14.4203 14.0535 12.7735 15.1169C12.1923 15.5036 11.4174 15.3102 11.1268 14.7302C10.7393 14.1501 10.933 13.3767 11.5142 13.0867C13.2578 11.9266 15.1952 10.9599 17.2294 10.2831C19.2636 9.60641 21.6418 8.83313 23.1866 8.83313C24.4216 8.83299 24.4945 8.83301 25.0757 8.83301C31.0815 8.83301 36.7967 10.9599 41.3495 14.9235C46.3866 19.2739 49.4864 25.3644 49.9707 32.035C50.1645 34.3552 49.3895 36.6754 47.8397 38.4156C46.2898 40.1557 44.1587 41.2192 41.8339 41.4125C39.509 41.6059 37.1842 40.8325 35.4406 39.2857C33.697 37.7388 32.6314 35.612 32.4377 33.2918C32.4377 32.7117 32.3408 32.1317 32.1471 31.6483C31.9533 31.1649 31.7596 30.5849 31.469 30.1015C31.2753 29.8115 31.2753 29.5215 31.3721 29.1348C31.469 28.9414 31.6627 28.6514 31.9533 28.458Z" fill="#F5F5F5"/>
<path d="M1.24617 25.8482C2.31171 22.6579 3.95846 19.8544 6.18642 17.3408C6.47704 17.0508 6.76763 16.7608 7.05823 16.4707C7.34885 16.1807 7.63944 15.8907 7.83318 15.6007C8.02691 15.4073 8.41438 15.214 8.70499 15.3106C8.99559 15.3106 9.38306 15.504 9.5768 15.6973C9.77052 15.8907 9.96426 16.2774 9.86739 16.5674C9.86739 16.8574 9.67366 17.2441 9.47993 17.4375C9.28619 17.6308 8.99559 17.9209 8.80186 18.1142C8.60812 18.3076 8.31752 18.5976 8.12378 18.8876C6.08956 21.1111 4.63654 23.7214 3.66786 26.6216C2.69918 29.4252 2.31171 32.4221 2.50545 35.419C2.60231 36.4825 3.08665 37.3526 3.76473 38.0293C4.53967 38.706 5.50836 38.996 6.5739 38.8994C7.54257 38.8027 8.51125 38.3193 9.18933 37.6426C9.86739 36.8692 10.158 35.9024 10.0611 34.839C9.96426 33.8722 10.0611 32.8088 10.158 31.8421C10.2549 30.8753 10.5455 29.8119 10.8361 28.8451C11.0298 28.3618 11.5141 28.0717 11.9985 28.0717C12.0954 28.0717 12.2891 28.0717 12.386 28.1684C12.6766 28.2651 12.9672 28.4584 13.064 28.7485C13.1609 29.0385 13.2578 29.3285 13.1609 29.7152C12.8703 30.4886 12.6766 31.3587 12.5797 32.2288C12.4828 33.0989 12.4828 33.8722 12.4828 34.7423C12.5797 36.3858 12.0954 38.0293 10.9329 39.2861C9.86739 40.5428 8.31752 41.3162 6.67076 41.4129C5.02402 41.5096 3.37726 41.0262 2.11798 39.8661C0.955562 38.8027 0.180624 37.2559 0.0837566 35.6124C-0.206847 32.2288 0.277492 28.9418 1.24617 25.8482Z" fill="#F5F5F5"/>
<path d="M12.6768 26.0408C12.5799 25.7508 12.6768 25.3641 12.8705 25.1707C14.1298 23.4306 15.7766 21.8838 17.7139 20.917C19.6513 19.8536 21.6855 19.2735 23.9135 19.0802C27.885 18.7901 31.7598 20.0469 34.7627 22.6572C37.7656 25.2674 39.6061 28.8444 39.8967 32.9047C39.8967 33.2914 40.0904 33.5814 40.381 33.7748C40.6716 33.9681 40.9622 34.1615 41.3497 34.0648C41.7371 34.0648 42.0277 33.8715 42.2215 33.5814C42.4152 33.2914 42.5121 33.0014 42.5121 32.6147C42.3184 30.3912 41.7371 28.1676 40.7685 26.2341C39.7998 24.204 38.4436 22.4638 36.7969 20.917C36.3125 20.4336 36.2157 19.6602 36.7 19.1768C36.8938 18.8868 37.2812 18.7901 37.5718 18.7901C37.8624 18.7901 38.153 18.8868 38.3468 19.0802C40.2841 20.8203 41.834 22.8505 42.8996 25.1707C44.062 27.4909 44.6432 29.9078 44.8369 32.518C44.9338 33.5814 44.5463 34.4515 43.9651 35.2249C43.287 35.9983 42.4152 36.4817 41.4465 36.4817C40.4779 36.5784 39.5092 36.1917 38.7342 35.6116C37.9593 34.9349 37.5718 34.0648 37.475 33.0981C37.1844 29.7144 35.7313 26.7175 33.2128 24.494C30.6942 22.2705 27.4976 21.207 24.1072 21.4971C22.2667 21.5937 20.5231 22.1738 18.9732 23.0439C17.4233 23.9139 15.9703 25.1707 14.9048 26.6208C14.5173 27.2009 13.7424 27.2976 13.1611 26.9109C12.8705 26.6208 12.7737 26.3308 12.6768 26.0408Z" fill="#F5F5F5"/>
<path d="M24.3009 23.9148C25.2696 23.8181 26.3352 23.9148 27.3038 24.2048C28.2725 24.3981 29.2412 24.7848 30.113 25.3649C30.6942 25.7516 30.888 26.4283 30.5005 27.0084C30.113 27.5884 29.4349 27.7818 28.8537 27.3951C28.1757 27.0084 27.4976 26.7183 26.7226 26.525C25.9477 26.3316 25.1728 26.3316 24.4947 26.3316C22.5573 26.4283 20.7168 27.3951 19.3607 28.8452C18.1014 30.392 17.4233 32.2288 17.5202 34.259C17.5202 34.6457 17.6171 34.9357 17.6171 35.2257C17.7139 35.5158 17.8108 35.8058 17.9077 36.1925C18.0045 36.4825 18.2951 36.7725 18.5857 36.9659C18.8763 37.1592 19.2638 37.1592 19.5544 37.0626C19.845 36.9659 20.1356 36.6759 20.3294 36.3858C20.5231 36.0958 20.5231 35.7091 20.4262 35.4191C20.3294 35.2257 20.3294 35.0324 20.2325 34.839C20.2325 34.6457 20.1356 34.3557 20.1356 34.259C20.0388 33.0022 20.4262 31.7454 21.298 30.7787C22.1699 29.8119 23.3323 29.2319 24.5915 29.1352C25.8508 29.0385 27.1101 29.4252 28.0788 30.2953C28.9506 31.0687 29.5318 32.1321 29.7255 33.2922C29.7255 33.3889 29.7255 33.4856 29.7255 33.5823C29.7255 34.259 29.1443 34.839 28.4663 34.839C27.7882 34.839 27.3038 34.3557 27.207 33.6789C27.1101 33.0989 26.8195 32.5188 26.432 32.2288C25.9477 31.8421 25.4634 31.6488 24.8822 31.6488C24.7853 31.6488 24.7853 31.6488 24.6884 31.6488C24.0103 31.6488 23.4291 31.9388 23.0417 32.4222C22.6542 32.9055 22.4605 33.4856 22.4605 34.1623C22.4605 34.259 22.4605 34.3557 22.4605 34.4523C22.4605 34.549 22.4605 34.6457 22.5573 34.7424C22.8479 35.7091 22.8479 36.6759 22.3636 37.6426C21.8792 38.5127 21.2012 39.1894 20.2325 39.5761C19.2638 39.8661 18.2951 39.8661 17.3265 39.3828C16.4546 38.9961 15.7766 38.2227 15.3891 37.2559C15.2922 36.8692 15.0985 36.3858 15.0016 35.9991C14.9048 35.5158 14.8079 35.1291 14.8079 34.7424C14.6142 32.1321 15.486 29.5219 17.2296 27.5884C19.2638 25.3649 21.6855 24.1081 24.3009 23.9148Z" fill="#F5F5F5"/>
</g>
</svg>
