<?xml version="1.0" standalone="no"?>
<!DOCTYPE svg PUBLIC "-//W3C//DTD SVG 20010904//EN"
 "http://www.w3.org/TR/2001/REC-SVG-20010904/DTD/svg10.dtd">
<svg version="1.0" xmlns="http://www.w3.org/2000/svg"
 width="3544.000000pt" height="1182.000000pt" viewBox="0 0 3544.000000 1182.000000"
 preserveAspectRatio="xMidYMid meet" fill="currentColor">

<g transform="translate(0.000000,1182.000000) scale(0.100000,-0.100000)"
 stroke="none">
<path d="M4700 9493 c-131 -5 -390 -34 -535 -59 -733 -129 -1377 -455 -1894
-959 -602 -587 -973 -1351 -1073 -2210 -16 -140 -16 -578 1 -710 57 -467 175
-860 377 -1255 171 -338 366 -609 629 -879 423 -433 916 -735 1495 -914 683
-212 1480 -232 2195 -57 1157 283 2070 1097 2498 2225 101 269 168 546 209
865 17 140 17 610 0 750 -88 693 -332 1287 -758 1840 -114 148 -445 479 -594
594 -713 551 -1565 808 -2550 769z m514 -838 c1027 -120 1905 -785 2274 -1722
83 -211 144 -451 174 -693 16 -135 16 -514 0 -650 -76 -613 -325 -1143 -741
-1573 -455 -470 -1039 -760 -1700 -843 -147 -18 -460 -21 -601 -5 -478 55
-897 208 -1285 466 -164 109 -264 193 -425 354 -429 429 -682 951 -766 1576
-24 177 -24 522 0 700 44 328 123 590 266 880 133 270 289 486 509 706 403
402 890 658 1471 774 226 46 582 58 824 30z"/>
<path d="M23670 9087 l0 -414 148 -6 c472 -20 977 -186 1387 -455 689 -451
1122 -1150 1220 -1967 21 -174 21 -492 0 -660 -54 -445 -196 -834 -430 -1185
-115 -172 -198 -274 -345 -420 -421 -421 -954 -693 -1550 -790 -1331 -215
-2664 589 -3074 1855 -82 256 -136 564 -136 788 l0 77 -470 0 -470 0 0 -102
c0 -57 7 -166 15 -243 140 -1318 991 -2461 2195 -2948 719 -291 1547 -362
2346 -202 571 115 1098 360 1549 721 148 118 408 380 532 536 413 516 677
1129 767 1775 126 904 -126 1857 -689 2608 -352 469 -775 818 -1297 1069 -479
231 -953 344 -1555 371 l-143 7 0 -415z"/>
<path d="M10000 5916 l0 -3476 1318 0 c1346 0 1442 2 1657 40 661 116 1215
520 1490 1085 181 371 236 810 154 1232 -125 651 -594 1136 -1222 1264 -56 11
-104 22 -106 25 -6 5 -7 5 74 49 436 239 703 603 782 1065 22 130 22 417 -1
572 -118 818 -728 1412 -1604 1563 -270 46 -303 47 -1449 52 l-1093 5 0 -3476z
m2065 2694 c402 -34 681 -139 878 -329 214 -206 320 -452 334 -776 6 -152 -8
-262 -47 -385 -136 -421 -534 -698 -1076 -750 -61 -5 -364 -10 -686 -10 l-578
0 0 1130 0 1130 528 0 c290 0 581 -5 647 -10z m495 -3034 c295 -37 546 -122
735 -249 78 -53 216 -186 271 -263 141 -197 212 -451 201 -724 -6 -152 -17
-217 -54 -340 -98 -328 -343 -564 -708 -683 -117 -38 -193 -56 -339 -80 -124
-19 -175 -21 -953 -24 l-823 -4 0 1190 0 1191 778 0 c614 0 802 -3 892 -14z"/>
<path d="M15310 8975 l0 -415 880 0 880 0 0 -3060 0 -3060 440 0 440 0 0 3058
0 3059 1082 6 c595 4 1252 7 1460 7 l378 0 0 410 0 410 -2780 0 -2780 0 0
-415z"/>
<path d="M28750 5915 l0 -3475 445 0 445 0 0 2692 c0 2105 3 2689 12 2680 7
-7 857 -1217 1889 -2690 l1876 -2677 417 -3 416 -2 0 3475 0 3475 -440 0 -440
0 0 -2684 c0 -1624 -4 -2687 -9 -2691 -5 -3 -857 1204 -1893 2682 l-1883 2688
-418 3 -417 2 0 -3475z"/>
</g>
</svg>
