<?xml version="1.0" standalone="no"?>
<!DOCTYPE svg PUBLIC "-//W3C//DTD SVG 20010904//EN"
 "http://www.w3.org/TR/2001/REC-SVG-20010904/DTD/svg10.dtd">
<svg version="1.0" xmlns="http://www.w3.org/2000/svg"
 width="2951.000000pt" height="507.000000pt" viewBox="0 0 2951.000000 507.000000"
 preserveAspectRatio="xMidYMid meet">

<g transform="translate(0.000000,507.000000) scale(0.100000,-0.100000)"
fill="currentColor" stroke="none">
<path d="M7190 5064 c-206 -19 -400 -115 -498 -246 -28 -38 -957 -1739 -1111
-2035 l-12 -23 374 0 374 0 113 210 114 210 737 0 737 0 113 -210 114 -210
373 0 c204 0 372 2 372 5 0 2 -184 343 -408 757 -225 414 -471 870 -548 1013
-129 240 -145 265 -214 335 -88 89 -179 139 -310 169 -86 20 -238 32 -320 25z
m350 -1004 l226 -415 -480 -3 c-263 -1 -481 0 -483 2 -3 2 84 168 192 368 282
519 252 470 288 466 30 -3 39 -17 257 -418z"/>
<path d="M9304 5060 c-111 -23 -221 -117 -249 -213 -13 -44 -15 -190 -15
-1069 l0 -1018 345 0 345 0 2 670 3 670 795 -656 c439 -363 815 -667 840 -678
37 -17 65 -21 150 -21 95 0 110 3 157 27 76 40 118 82 150 146 l28 57 3 1033
2 1032 -345 0 -345 0 0 -666 c0 -435 -3 -665 -10 -662 -5 2 -312 253 -682 558
-950 786 -915 757 -966 774 -57 20 -155 27 -208 16z"/>
<path d="M19545 5063 c-710 -35 -1126 -266 -1274 -708 -45 -136 -62 -249 -62
-426 -1 -168 10 -268 43 -394 123 -470 472 -712 1127 -782 184 -19 611 -13
771 12 646 99 979 388 1061 920 17 115 15 360 -5 475 -65 370 -266 623 -609
764 -258 107 -652 159 -1052 139z m480 -477 c120 -36 178 -69 250 -141 69 -69
114 -148 145 -255 33 -114 39 -379 12 -512 -28 -136 -70 -217 -157 -303 -78
-78 -153 -120 -280 -157 -72 -21 -100 -23 -285 -23 -184 0 -213 2 -285 23
-241 70 -374 216 -426 467 -18 85 -20 125 -16 270 4 148 8 180 30 250 74 226
206 341 457 396 71 16 117 18 275 15 172 -3 199 -6 280 -30z"/>
<path d="M25590 5059 c-141 -16 -283 -71 -371 -144 -71 -59 -123 -130 -195
-264 -119 -222 -965 -1784 -996 -1839 l-30 -52 377 2 377 3 111 205 112 205
739 0 739 0 112 -205 111 -205 373 -3 c346 -2 373 -1 367 15 -4 9 -230 428
-503 932 -272 504 -516 954 -541 1000 -53 99 -147 202 -226 250 -81 48 -207
88 -318 100 -108 12 -130 12 -238 0z m382 -997 l227 -417 -245 -3 c-135 -1
-353 -1 -485 0 l-239 3 226 418 c224 412 227 417 258 417 31 0 34 -6 258 -418z"/>
<path d="M785 5033 c-296 -35 -473 -101 -596 -220 -117 -112 -167 -240 -176
-443 -9 -217 36 -372 140 -478 65 -67 129 -103 237 -136 180 -55 212 -57 845
-66 350 -5 610 -13 639 -19 87 -19 152 -55 183 -102 24 -36 28 -53 28 -109 0
-86 -31 -138 -107 -176 -102 -52 -132 -53 -1065 -54 l-863 0 0 -235 0 -236
1078 4 1077 3 85 22 c267 71 444 235 521 482 31 99 34 302 5 394 -80 265 -293
414 -671 471 -77 11 -201 15 -540 15 -479 1 -611 8 -683 40 -60 27 -81 46
-103 95 -40 87 -9 191 69 233 67 37 168 41 1015 42 l777 0 0 240 0 240 -932
-1 c-513 -1 -946 -4 -963 -6z"/>
<path d="M4140 5029 c-276 -28 -522 -107 -710 -227 -71 -45 -188 -159 -251
-243 -56 -75 -127 -213 -158 -307 -43 -128 -54 -201 -54 -362 0 -134 4 -168
26 -252 49 -186 143 -352 279 -494 99 -103 170 -156 297 -219 129 -65 239
-100 384 -124 202 -34 365 -41 980 -41 l587 0 0 239 0 239 -572 5 c-345 3
-599 9 -639 15 -292 49 -487 224 -535 482 -19 101 -14 281 11 375 25 97 73
185 134 245 69 67 130 101 245 134 171 50 269 57 834 63 l522 5 0 239 0 239
-647 -1 c-357 -1 -686 -6 -733 -10z"/>
<path d="M14207 5025 c-638 -77 -978 -358 -1073 -885 -26 -141 -24 -414 3
-540 81 -377 324 -631 726 -759 222 -71 388 -81 1325 -81 l762 0 0 520 0 520
-345 0 -345 0 -2 -282 -3 -283 -425 0 c-405 1 -429 2 -514 23 -210 53 -324
164 -376 368 -41 158 -35 429 11 582 59 191 171 300 366 354 77 22 90 22 856
26 l777 3 0 224 0 225 -817 -1 c-606 -1 -846 -5 -926 -14z"/>
<path d="M16173 4243 c3 -887 1 -854 73 -998 85 -172 306 -345 527 -414 186
-57 383 -71 1020 -71 l497 0 0 219 0 220 -522 4 c-451 3 -533 6 -598 21 -107
25 -172 57 -229 114 -85 85 -81 44 -81 929 l0 773 -345 0 -346 0 4 -797z"/>
<path d="M21370 3900 l0 -1140 903 0 c527 0 948 4 1012 10 225 21 446 78 561
145 66 39 154 131 191 200 86 164 86 400 0 548 -40 67 -134 148 -233 199 l-88
46 45 22 c128 65 240 171 288 274 146 310 -28 647 -399 770 -175 58 -205 59
-1287 63 l-993 4 0 -1141z m1801 652 c94 -31 149 -104 149 -194 0 -89 -41
-147 -135 -190 -50 -23 -51 -23 -582 -26 l-533 -3 0 216 0 216 533 -4 c382 -2
542 -6 568 -15z m0 -900 c85 -28 134 -80 148 -157 17 -93 -9 -165 -79 -212
-67 -46 -78 -47 -637 -51 l-533 -3 0 221 0 221 533 -4 c379 -2 542 -7 568 -15z"/>
<path d="M27263 4253 c3 -776 3 -789 25 -872 40 -151 112 -256 257 -376 94
-79 243 -155 361 -185 185 -47 265 -52 887 -57 l587 -5 0 220 0 221 -522 4
c-566 4 -607 8 -723 62 -65 31 -132 96 -159 154 -21 45 -21 55 -24 834 l-3
787 -345 0 -345 0 4 -787z"/>
<path d="M12380 2324 c-396 -34 -643 -104 -845 -239 -221 -147 -355 -359 -406
-645 -20 -112 -18 -422 5 -534 47 -239 118 -385 255 -530 180 -187 423 -291
816 -348 143 -21 710 -18 850 5 350 55 582 153 759 318 93 86 151 166 206 280
125 262 142 676 39 984 -130 388 -466 616 -1019 690 -119 16 -552 28 -660 19z
m523 -463 c234 -62 365 -193 429 -428 29 -109 32 -380 5 -498 -56 -242 -201
-389 -452 -457 -110 -30 -399 -32 -520 -5 -195 45 -331 145 -404 297 -62 127
-76 204 -76 415 0 201 10 256 69 380 80 169 223 268 447 310 113 22 400 14
502 -14z"/>
<path d="M9043 1528 c4 -860 4 -856 66 -993 103 -224 364 -408 661 -465 166
-32 337 -40 871 -40 l519 0 0 214 0 214 -507 5 c-514 5 -556 8 -685 47 -114
35 -206 124 -227 220 -7 34 -11 301 -11 815 l0 765 -346 0 -345 0 4 -782z"/>
<path d="M15495 2299 c-748 -53 -1139 -370 -1204 -977 -67 -624 183 -1034 744
-1217 200 -65 371 -75 1296 -75 l779 0 -2 518 -3 517 -342 3 -343 2 0 -285 0
-285 -407 0 c-225 0 -435 4 -468 10 -296 47 -436 208 -465 530 -11 131 1 302
29 413 61 237 216 363 486 396 58 7 346 11 803 11 l712 0 0 225 0 225 -752 -1
c-414 -1 -802 -5 -863 -10z"/>
<path d="M17400 1170 l0 -1140 345 0 345 0 0 1140 0 1140 -345 0 -345 0 0
-1140z"/>
<path d="M19130 2303 c-453 -27 -715 -189 -797 -493 -13 -49 -18 -102 -17
-220 0 -140 3 -163 27 -235 76 -228 243 -348 567 -407 103 -19 169 -22 650
-28 408 -5 544 -10 573 -20 114 -41 160 -208 85 -313 -29 -40 -106 -73 -201
-86 -50 -7 -356 -11 -838 -11 l-759 0 0 -230 0 -231 898 4 c789 3 907 6 982
20 221 44 342 100 451 207 123 121 169 247 169 465 0 215 -46 353 -154 461
-74 73 -153 116 -279 149 -155 41 -241 47 -802 54 -485 6 -544 8 -580 24 -83
37 -117 92 -116 188 0 122 63 194 191 223 59 14 175 16 822 16 414 0 763 3
776 6 l22 6 0 229 0 229 -807 -2 c-445 -1 -833 -3 -863 -5z"/>
<path d="M21000 2080 l0 -230 418 -2 417 -3 3 -907 2 -908 340 0 340 0 2 908
3 907 423 3 422 2 0 230 0 230 -1185 0 -1185 0 0 -230z"/>
<path d="M23570 1170 l0 -1140 340 0 340 0 0 1140 0 1140 -340 0 -340 0 0
-1140z"/>
<path d="M25544 2299 c-629 -48 -963 -320 -1060 -864 -22 -126 -25 -443 -5
-555 70 -389 312 -668 679 -784 182 -57 212 -59 915 -63 l647 -4 0 230 0 230
-572 4 c-497 3 -581 6 -636 20 -150 40 -232 103 -288 220 -51 110 -67 224 -61
437 6 194 22 284 70 400 37 91 122 182 208 224 105 51 165 55 747 56 l532 0 0
230 0 230 -537 -1 c-296 -1 -583 -5 -639 -10z"/>
<path d="M27680 2300 c-446 -34 -685 -190 -767 -500 -24 -91 -24 -320 1 -409
68 -248 243 -383 575 -443 105 -19 168 -21 656 -27 l540 -6 48 -23 c80 -40
123 -145 98 -239 -24 -88 -93 -133 -234 -152 -51 -7 -347 -11 -838 -11 l-759
0 0 -230 0 -231 898 4 c989 3 968 2 1167 68 119 40 206 93 281 171 114 119
156 242 156 458 0 104 -5 153 -21 213 -67 253 -241 380 -586 427 -44 6 -311
14 -600 16 -424 4 -530 8 -575 21 -113 31 -155 91 -148 210 6 91 36 142 106
177 89 45 113 46 905 46 414 0 762 3 775 6 l22 6 0 229 0 229 -802 -1 c-442
-1 -846 -5 -898 -9z"/>
</g>
</svg>
