<?xml version="1.0" standalone="no"?>
<!DOCTYPE svg PUBLIC "-//W3C//DTD SVG 20010904//EN"
 "http://www.w3.org/TR/2001/REC-SVG-20010904/DTD/svg10.dtd">
<svg version="1.0" xmlns="http://www.w3.org/2000/svg"
 width="1024.000000pt" height="458.000000pt" viewBox="0 0 1551.000000 507.000000"
 preserveAspectRatio="xMidYMid meet">

<g transform="translate(0.000000,458.000000) scale(0.100000,-0.100000)"
fill="currentColor" stroke="none">
<path d="M1714 4549 l-29 -30 -5 -389 c-5 -356 -7 -391 -23 -407 -16 -16 -51
-18 -403 -23 l-386 -5 -24 -28 c-26 -30 -31 -71 -13 -110 23 -51 32 -52 458
-52 l396 0 60 30 c70 35 109 89 125 174 6 30 10 211 10 413 0 385 -3 408 -51
442 -38 26 -81 20 -115 -15z"/>
<path d="M2957 4569 c-45 -26 -47 -47 -47 -442 0 -354 -1 -376 -19 -398 l-19
-24 -387 -5 -387 -5 -24 -28 c-26 -30 -31 -71 -13 -110 23 -51 32 -52 459 -52
l396 0 59 30 c70 36 109 90 125 174 13 71 13 744 0 793 -18 64 -90 98 -143 67z"/>
<path d="M7044 4549 l-29 -30 -5 -391 -5 -390 -24 -19 c-22 -18 -46 -19 -546
-19 l-522 0 -26 -25 c-34 -34 -40 -67 -23 -110 28 -65 26 -65 584 -65 296 0
521 4 553 10 84 16 138 55 174 125 l30 59 3 385 c2 260 0 398 -7 423 -24 78
-104 103 -157 47z"/>
<path d="M8564 4549 l-29 -30 -5 -389 c-5 -356 -7 -391 -23 -407 -16 -17 -54
-18 -546 -21 l-529 -3 -25 -24 c-31 -32 -39 -71 -21 -113 26 -63 25 -63 617
-60 409 2 539 6 562 16 65 28 105 65 132 121 l28 56 3 385 c2 257 0 397 -8
422 -23 78 -103 103 -156 47z"/>
<path d="M4470 3974 c-190 -30 -358 -59 -373 -66 -16 -6 -35 -21 -42 -32 -7
-12 -46 -120 -85 -241 -50 -152 -80 -228 -96 -245 l-24 -25 -528 0 c-616 -1
-575 6 -628 -105 -23 -46 -40 -68 -60 -77 -41 -17 -419 -17 -454 0 -15 7 -40
41 -62 82 -20 38 -45 75 -55 82 -12 8 -97 12 -268 14 -300 4 -301 3 -345 -95
-16 -34 -36 -69 -46 -77 -13 -11 -65 -15 -244 -17 -282 -4 -287 -2 -330 92
-16 35 -40 72 -52 80 -19 14 -72 16 -395 16 -359 0 -373 -1 -373 -19 0 -10 35
-108 78 -217 44 -110 100 -254 126 -321 32 -83 56 -129 73 -143 26 -20 34 -20
4748 -20 4718 0 4722 0 4748 20 16 13 104 176 244 455 182 363 215 437 203
445 -20 13 -608 13 -805 0 -333 -21 -528 -69 -825 -203 -175 -78 -306 -120
-460 -146 -143 -24 -416 -44 -542 -40 -113 5 -125 12 -169 104 -16 33 -38 66
-48 72 -12 7 -103 12 -267 15 -298 3 -300 3 -349 -99 -46 -98 -18 -93 -547
-93 -249 0 -458 4 -465 8 -6 4 -32 112 -57 240 -26 128 -52 248 -60 265 -20
50 -62 93 -112 118 -45 21 -52 22 -208 13 -88 -4 -197 -8 -241 -9 l-80 0 -33
94 c-40 117 -52 131 -106 130 -23 -1 -196 -26 -386 -55z"/>
<path d="M7155 2130 c-321 -26 -561 -120 -704 -276 -88 -96 -130 -199 -138
-344 -14 -240 89 -420 307 -534 92 -49 183 -77 440 -136 273 -63 310 -82 310
-158 0 -39 -31 -76 -79 -95 -103 -42 -344 -46 -636 -11 -237 28 -248 28 -284
10 -55 -29 -63 -65 -59 -256 3 -158 4 -168 28 -202 30 -45 73 -66 170 -83 242
-43 722 -46 914 -6 219 45 355 109 461 216 82 82 118 144 145 251 23 87 27
240 9 326 -31 151 -140 290 -285 365 -90 47 -187 76 -429 128 -93 20 -194 44
-224 53 -88 27 -127 78 -105 137 10 26 78 54 161 66 96 14 361 6 532 -17 68
-8 138 -13 156 -10 72 14 95 75 95 252 0 179 -29 252 -115 284 -89 34 -470 57
-670 40z"/>
<path d="M361 2100 c-50 -12 -84 -42 -99 -86 -22 -64 -10 -640 16 -809 54
-342 169 -677 320 -930 57 -97 142 -204 173 -220 43 -23 675 -22 706 0 53 37
196 254 260 394 18 40 36 71 39 68 3 -3 25 -48 48 -100 84 -185 179 -338 226
-362 24 -12 83 -15 347 -15 378 0 355 -6 456 126 169 222 318 537 397 840 60
233 72 330 77 665 5 292 4 308 -15 352 -34 78 -50 82 -307 82 -240 0 -259 -4
-299 -58 -20 -27 -21 -44 -27 -370 -8 -419 -25 -557 -91 -767 -44 -138 -132
-308 -182 -349 -12 -10 -20 -5 -51 36 -45 61 -127 228 -153 313 -66 216 -91
445 -92 820 0 291 -3 310 -63 354 -27 20 -42 21 -256 21 -252 0 -261 -2 -301
-68 -18 -29 -20 -52 -20 -262 -1 -474 -36 -730 -133 -965 -31 -77 -94 -188
-132 -236 l-21 -27 -26 28 c-68 73 -160 278 -198 439 -43 182 -52 282 -59 646
-8 473 11 444 -301 447 -113 1 -220 -2 -239 -7z"/>
<path d="M5355 2103 c-36 -10 -77 -45 -91 -79 -12 -28 -14 -192 -14 -954 0
-910 0 -921 21 -961 33 -66 59 -73 304 -73 232 0 252 4 299 67 21 28 21 29 21
965 0 877 -1 939 -18 969 -33 62 -58 68 -292 70 -115 1 -219 -1 -230 -4z"/>
<path d="M8361 2100 c-18 -4 -48 -22 -65 -39 l-31 -31 -3 -174 c-3 -145 -1
-180 13 -206 26 -50 69 -70 152 -70 39 0 78 -3 87 -6 14 -5 16 -49 16 -389 0
-426 9 -552 47 -668 75 -226 259 -388 509 -448 102 -24 337 -40 474 -32 192
10 210 33 210 265 0 235 -17 256 -228 269 -182 11 -254 42 -307 133 -47 81
-55 150 -55 518 0 323 1 338 19 348 12 6 110 10 248 10 205 0 231 2 259 19 57
35 66 71 62 256 -3 147 -5 166 -24 192 -44 60 -21 58 -714 60 -349 1 -650 -2
-669 -7z"/>
<path d="M4435 2094 c-132 -18 -192 -30 -271 -55 -217 -69 -375 -231 -443
-454 -35 -112 -42 -287 -39 -892 3 -553 3 -562 24 -590 47 -62 66 -67 298 -67
191 -1 215 1 251 19 75 38 73 18 77 671 4 566 5 580 26 638 27 71 60 117 106
146 54 33 91 41 227 49 212 13 229 33 229 271 0 251 -13 264 -280 266 -96 1
-188 0 -205 -2z"/>
</g>
</svg>
